<svg xmlns="http://www.w3.org/2000/svg" xmlns:xlink="http://www.w3.org/1999/xlink" width="500" zoomAndPan="magnify" viewBox="0 0 375 374.999991" height="500" preserveAspectRatio="xMidYMid meet" version="1.0"><defs><g/><clipPath id="3fc0379244"><path d="M 91 95 L 285 95 L 285 195 L 91 195 Z M 91 95 " clip-rule="nonzero"/></clipPath><clipPath id="bfb737033c"><path d="M 127.867188 69.125 L 303.941406 129.066406 L 264.542969 244.792969 L 88.46875 184.851562 Z M 127.867188 69.125 " clip-rule="nonzero"/></clipPath><clipPath id="612ca0ae00"><path d="M 127.867188 69.125 L 303.941406 129.066406 L 264.542969 244.792969 L 88.46875 184.851562 Z M 127.867188 69.125 " clip-rule="nonzero"/></clipPath><clipPath id="4cafb62092"><path d="M 91 194 L 285 194 L 285 294 L 91 294 Z M 91 194 " clip-rule="nonzero"/></clipPath><clipPath id="def655351b"><path d="M 88.347656 203.574219 L 264.34375 143.398438 L 303.894531 259.074219 L 127.898438 319.246094 Z M 88.347656 203.574219 " clip-rule="nonzero"/></clipPath><clipPath id="e5b987340d"><path d="M 127.984375 319.492188 L 303.980469 259.316406 L 264.429688 143.640625 L 88.433594 203.816406 Z M 127.984375 319.492188 " clip-rule="nonzero"/></clipPath><clipPath id="d8269ab53d"><path d="M 2.359375 162.519531 L 372.640625 162.519531 L 372.640625 226.097656 L 2.359375 226.097656 Z M 2.359375 162.519531 " clip-rule="nonzero"/></clipPath></defs><rect x="-37.5" width="450" fill="#ffffff" y="-37.499999" height="449.999989" fill-opacity="1"/><rect x="-37.5" width="450" fill="#000000" y="-37.499999" height="449.999989" fill-opacity="1"/><g clip-path="url(#3fc0379244)"><g clip-path="url(#bfb737033c)"><g clip-path="url(#612ca0ae00)"><path fill="#ffffff" d="M 187.597656 95.46875 C 149.132812 95.773438 112.964844 119.222656 98.300781 157.292969 C 94.617188 166.851562 92.566406 176.640625 91.996094 186.347656 L 92.320312 186.347656 C 92.875 176.78125 94.929688 167.132812 98.613281 157.714844 C 99.417969 155.664062 100.285156 153.660156 101.214844 151.695312 C 107.875 155.230469 114.800781 158.394531 121.964844 161.183594 C 119.875 169.503906 118.679688 177.964844 118.3125 186.363281 L 118.546875 186.363281 C 118.910156 178 120.125 169.582031 122.257812 161.300781 C 128.140625 163.578125 134.183594 165.601562 140.375 167.339844 C 144.519531 168.503906 148.664062 169.519531 152.816406 170.402344 C 152.3125 175.71875 151.996094 181.0625 151.867188 186.382812 L 152 186.382812 C 152.128906 181.070312 152.445312 175.734375 152.960938 170.429688 C 166.015625 173.195312 179.082031 174.582031 191.992188 174.6875 L 192.195312 194.125 L 192.316406 174.6875 C 204.921875 174.769531 217.386719 173.632812 229.554688 171.351562 C 230.003906 176.289062 230.296875 181.332031 230.414062 186.425781 L 230.546875 186.425781 C 230.429688 181.324219 230.140625 176.273438 229.695312 171.324219 C 239.496094 169.480469 249.101562 166.898438 258.4375 163.621094 C 260.171875 170.984375 261.234375 178.652344 261.566406 186.445312 L 261.816406 186.445312 C 261.480469 178.617188 260.4375 170.917969 258.730469 163.511719 C 265.054688 161.28125 271.257812 158.730469 277.304688 155.875 C 281.328125 165.550781 283.746094 175.882812 284.355469 186.457031 L 284.6875 186.460938 C 282.566406 149.804688 259.511719 115.992188 223.019531 101.9375 C 213.839844 98.402344 204.449219 96.363281 195.121094 95.703125 C 194.328125 95.628906 193.539062 95.574219 192.746094 95.53125 C 192.144531 95.476562 191.539062 95.457031 190.9375 95.46875 C 190.890625 95.46875 190.84375 95.476562 190.796875 95.476562 C 190.371094 95.472656 189.945312 95.464844 189.523438 95.46875 C 189.441406 95.46875 189.355469 95.476562 189.273438 95.476562 C 188.714844 95.472656 188.15625 95.464844 187.597656 95.46875 Z M 190.445312 97.066406 C 190.6875 97.070312 190.925781 97.078125 191.167969 97.082031 L 191.296875 108.800781 C 185.261719 108.699219 179.316406 108.1875 173.492188 107.292969 C 178.710938 100.921875 184.503906 97.363281 190.445312 97.066406 Z M 192.773438 97.136719 C 192.917969 97.144531 193.066406 97.15625 193.210938 97.164062 C 197.265625 97.65625 201.351562 99.671875 205.34375 103.378906 C 206.761719 104.695312 208.121094 106.191406 209.4375 107.84375 C 204.183594 108.484375 198.839844 108.820312 193.421875 108.820312 C 193.179688 108.820312 192.941406 108.8125 192.703125 108.808594 Z M 183.324219 97.464844 C 179.535156 99.378906 175.878906 102.640625 172.488281 107.132812 C 168.796875 106.535156 165.15625 105.78125 161.570312 104.886719 C 168.445312 100.941406 175.785156 98.414062 183.324219 97.464844 Z M 200.171875 97.984375 C 205.414062 98.976562 210.65625 100.761719 215.808594 103.386719 C 217.394531 104.195312 218.945312 105.074219 220.464844 106.011719 C 217.171875 106.707031 213.832031 107.277344 210.457031 107.71875 C 208.855469 105.53125 207.164062 103.589844 205.402344 101.929688 C 203.671875 100.296875 201.925781 98.988281 200.171875 97.984375 Z M 172.996094 98.253906 C 168.46875 99.75 164.058594 101.820312 159.839844 104.445312 C 158.148438 103.996094 156.472656 103.511719 154.808594 103 C 160.679688 100.847656 166.773438 99.25 172.996094 98.253906 Z M 211.296875 99.800781 C 215.183594 100.746094 219.058594 101.933594 222.894531 103.390625 C 223.984375 103.804688 225.066406 104.242188 226.136719 104.691406 C 224.824219 105.027344 223.503906 105.347656 222.175781 105.644531 C 220.148438 104.292969 218.054688 103.046875 215.898438 101.933594 C 214.371094 101.144531 212.835938 100.441406 211.296875 99.800781 Z M 152.960938 103.699219 C 154.777344 104.285156 156.613281 104.832031 158.460938 105.339844 C 153.582031 108.546875 148.96875 112.492188 144.722656 117.121094 C 141.410156 115.851562 138.15625 114.46875 134.96875 112.976562 C 140.625 109.265625 146.660156 106.15625 152.960938 103.699219 Z M 227.976562 105.488281 C 235.3125 108.75 242.042969 112.820312 248.105469 117.554688 C 244.976562 118.730469 241.800781 119.804688 238.582031 120.765625 C 234.125 115.285156 229.101562 110.5 223.5625 106.597656 C 225.042969 106.25 226.515625 105.882812 227.976562 105.488281 Z M 160.0625 105.78125 C 160.066406 105.777344 160.070312 105.78125 160.070312 105.78125 C 163.875 106.773438 167.742188 107.597656 171.667969 108.25 C 168.789062 112.277344 166.109375 117.199219 163.707031 122.933594 C 157.515625 121.488281 151.488281 119.65625 145.652344 117.46875 C 150.105469 112.824219 154.945312 108.902344 160.0625 105.78125 Z M 221.957031 106.960938 C 227.773438 110.773438 233.046875 115.523438 237.710938 121.023438 C 231.8125 122.746094 225.773438 124.089844 219.625 125.054688 C 217.1875 118.835938 214.390625 113.367188 211.261719 108.855469 C 214.875 108.367188 218.441406 107.734375 221.957031 106.960938 Z M 172.617188 108.402344 C 178.714844 109.371094 184.953125 109.921875 191.300781 110.023438 L 191.480469 126.695312 C 186.816406 126.511719 182.121094 126.109375 177.398438 125.46875 C 172.921875 124.859375 168.519531 124.042969 164.195312 123.050781 C 166.734375 117.257812 169.574219 112.347656 172.617188 108.402344 Z M 210.308594 108.96875 C 213.617188 113.394531 216.574219 118.863281 219.140625 125.132812 C 210.476562 126.464844 201.601562 127.015625 192.589844 126.730469 L 192.6875 110.035156 C 192.925781 110.035156 193.160156 110.042969 193.394531 110.042969 C 199.128906 110.046875 204.769531 109.675781 210.308594 108.96875 Z M 134.320312 113.402344 C 137.578125 114.910156 140.90625 116.300781 144.296875 117.574219 C 139.328125 123.074219 134.882812 129.515625 131.109375 136.789062 C 125.828125 134.667969 120.683594 132.289062 115.691406 129.667969 C 121.199219 123.414062 127.480469 117.972656 134.320312 113.402344 Z M 248.589844 117.933594 C 254.398438 122.53125 259.582031 127.742188 264.085938 133.429688 C 259.554688 135.53125 254.914062 137.429688 250.1875 139.125 C 247.003906 132.582031 243.21875 126.53125 238.886719 121.140625 C 242.160156 120.179688 245.402344 119.113281 248.589844 117.933594 Z M 145.222656 117.917969 C 151.136719 120.097656 157.246094 121.929688 163.527344 123.363281 C 160.945312 129.601562 158.691406 136.78125 156.859375 144.796875 C 148.160156 142.84375 139.734375 140.222656 131.621094 136.996094 C 135.507812 129.734375 140.101562 123.34375 145.222656 117.917969 Z M 238.027344 121.394531 C 242.503906 126.734375 246.40625 132.761719 249.6875 139.304688 C 241.957031 142.050781 233.988281 144.25 225.820312 145.839844 C 224.1875 138.457031 222.15625 131.578125 219.769531 125.421875 C 225.972656 124.460938 232.066406 123.105469 238.027344 121.394531 Z M 164.019531 123.472656 C 168.21875 124.417969 172.492188 125.199219 176.835938 125.789062 C 181.75 126.460938 186.632812 126.871094 191.488281 127.054688 L 191.71875 148.890625 C 187.722656 148.839844 183.707031 148.644531 179.660156 148.300781 C 171.980469 147.652344 164.449219 146.484375 157.117188 144.847656 C 159.015625 136.820312 161.347656 129.65625 164.019531 123.472656 Z M 219.292969 125.492188 C 221.769531 131.609375 223.875 138.484375 225.570312 145.882812 C 214.828125 147.957031 203.753906 149 192.460938 148.902344 L 192.589844 127.089844 C 201.648438 127.363281 210.578125 126.8125 219.292969 125.492188 Z M 115.097656 130.359375 C 120.171875 132.972656 125.394531 135.351562 130.761719 137.460938 C 127.675781 143.523438 125.054688 150.15625 123 157.308594 C 122.6875 158.402344 122.394531 159.496094 122.113281 160.59375 C 115.007812 157.78125 108.140625 154.570312 101.535156 151.007812 C 105.195312 143.421875 109.785156 136.511719 115.097656 130.359375 Z M 264.480469 133.921875 C 269.535156 140.390625 273.703125 147.46875 276.910156 154.953125 C 270.925781 157.839844 264.789062 160.414062 258.53125 162.679688 C 256.601562 154.550781 253.878906 146.78125 250.429688 139.601562 C 255.207031 137.914062 259.898438 136.015625 264.480469 133.921875 Z M 131.273438 137.65625 C 139.453125 140.84375 147.957031 143.421875 156.734375 145.339844 C 155.875 149.152344 155.109375 153.148438 154.453125 157.324219 C 153.796875 161.484375 153.269531 165.695312 152.859375 169.917969 C 148.960938 169.078125 145.0625 168.109375 141.171875 167.015625 C 134.75 165.214844 128.496094 163.105469 122.417969 160.707031 C 122.679688 159.714844 122.945312 158.714844 123.234375 157.726562 C 125.347656 150.476562 128.0625 143.765625 131.273438 137.65625 Z M 249.929688 139.785156 C 253.464844 146.929688 256.261719 154.667969 258.238281 162.785156 C 248.945312 166.132812 239.390625 168.777344 229.632812 170.675781 C 228.84375 162.144531 227.59375 153.929688 225.910156 146.25 C 234.125 144.667969 242.148438 142.507812 249.929688 139.785156 Z M 156.984375 145.394531 C 164.160156 146.949219 171.511719 148.066406 179.023438 148.703125 C 183.28125 149.0625 187.511719 149.253906 191.71875 149.300781 L 191.980469 174.203125 C 179.089844 174.125 166.039062 172.738281 153.003906 169.945312 C 153.40625 165.851562 153.929688 161.777344 154.578125 157.746094 C 155.265625 153.429688 156.074219 149.3125 156.984375 145.394531 Z M 225.660156 146.292969 C 227.390625 153.953125 228.679688 162.167969 229.488281 170.703125 C 217.34375 173.058594 204.90625 174.257812 192.3125 174.203125 L 192.460938 149.3125 C 203.777344 149.390625 214.882812 148.351562 225.660156 146.292969 Z M 225.660156 146.292969 " fill-opacity="1" fill-rule="nonzero"/></g></g></g><g clip-path="url(#4cafb62092)"><g clip-path="url(#def655351b)"><g clip-path="url(#e5b987340d)"><path fill="#ffffff" d="M 187.679688 293.066406 C 149.214844 292.8125 113.015625 269.414062 98.300781 231.363281 C 94.605469 221.808594 92.539062 212.023438 91.957031 202.316406 L 92.28125 202.316406 C 92.851562 211.882812 94.917969 221.527344 98.613281 230.941406 C 99.417969 232.992188 100.292969 234.992188 101.222656 236.957031 C 107.878906 233.414062 114.796875 230.238281 121.957031 227.4375 C 119.855469 219.125 118.652344 210.664062 118.273438 202.265625 L 118.507812 202.265625 C 118.882812 210.628906 120.109375 219.042969 122.253906 227.320312 C 128.128906 225.035156 134.171875 223.007812 140.363281 221.257812 C 144.503906 220.089844 148.648438 219.066406 152.800781 218.179688 C 152.289062 212.863281 151.964844 207.523438 151.828125 202.203125 L 151.960938 202.203125 C 152.097656 207.511719 152.421875 212.847656 152.941406 218.152344 C 165.992188 215.371094 179.058594 213.964844 191.96875 213.84375 L 192.148438 194.40625 L 192.292969 213.84375 C 204.898438 213.742188 217.363281 214.863281 229.535156 217.128906 C 229.980469 212.191406 230.261719 207.152344 230.375 202.054688 L 230.507812 202.054688 C 230.398438 207.15625 230.113281 212.207031 229.679688 217.15625 C 239.476562 218.988281 249.089844 221.558594 258.429688 224.824219 C 260.152344 217.457031 261.207031 209.789062 261.527344 201.992188 L 261.777344 201.992188 C 261.453125 209.824219 260.417969 217.523438 258.722656 224.929688 C 265.050781 227.152344 271.253906 229.695312 277.304688 232.542969 C 281.316406 222.863281 283.722656 212.527344 284.316406 201.949219 L 284.648438 201.949219 C 282.574219 238.605469 259.566406 272.449219 223.09375 286.554688 C 213.914062 290.101562 204.53125 292.148438 195.203125 292.824219 C 194.410156 292.898438 193.621094 292.957031 192.828125 292.996094 C 192.226562 293.054688 191.621094 293.074219 191.019531 293.0625 C 190.972656 293.0625 190.925781 293.054688 190.875 293.054688 C 190.453125 293.0625 190.027344 293.070312 189.605469 293.066406 C 189.519531 293.066406 189.4375 293.058594 189.355469 293.058594 C 188.796875 293.0625 188.234375 293.074219 187.679688 293.070312 Z M 190.523438 291.46875 C 190.765625 291.460938 191.007812 291.457031 191.25 291.449219 L 191.359375 279.734375 C 185.324219 279.839844 179.378906 280.359375 173.558594 281.261719 C 178.785156 287.628906 184.585938 291.175781 190.523438 291.46875 Z M 192.851562 291.390625 C 193 291.386719 193.144531 291.371094 193.292969 291.363281 C 197.34375 290.867188 201.429688 288.847656 205.417969 285.132812 C 206.832031 283.816406 208.191406 282.320312 209.5 280.664062 C 204.246094 280.03125 198.902344 279.699219 193.484375 279.710938 C 193.246094 279.710938 193.007812 279.71875 192.769531 279.722656 Z M 183.402344 291.078125 C 179.609375 289.167969 175.953125 285.910156 172.554688 281.425781 C 168.867188 282.027344 165.222656 282.785156 161.640625 283.6875 C 168.519531 287.621094 175.863281 290.136719 183.402344 291.078125 Z M 200.25 290.535156 C 205.492188 289.535156 210.730469 287.746094 215.878906 285.113281 C 217.464844 284.304688 219.015625 283.421875 220.53125 282.480469 C 217.238281 281.792969 213.898438 281.222656 210.523438 280.789062 C 208.921875 282.980469 207.234375 284.921875 205.472656 286.585938 C 203.746094 288.21875 202.003906 289.53125 200.25 290.535156 Z M 173.074219 290.300781 C 168.542969 288.8125 164.132812 286.746094 159.910156 284.128906 C 158.21875 284.578125 156.546875 285.066406 154.878906 285.578125 C 160.753906 287.726562 166.847656 289.3125 173.074219 290.300781 Z M 211.371094 288.707031 C 215.257812 287.753906 219.128906 286.5625 222.964844 285.101562 C 224.054688 284.683594 225.136719 284.246094 226.203125 283.796875 C 224.890625 283.460938 223.570312 283.140625 222.242188 282.84375 C 220.21875 284.203125 218.125 285.449219 215.972656 286.566406 C 214.445312 287.355469 212.910156 288.0625 211.371094 288.707031 Z M 153.03125 284.886719 C 154.847656 284.296875 156.679688 283.746094 158.53125 283.234375 C 153.648438 280.035156 149.027344 276.09375 144.773438 271.472656 C 141.464844 272.746094 138.210938 274.132812 135.027344 275.628906 C 140.6875 279.332031 146.726562 282.4375 153.03125 284.886719 Z M 228.046875 282.996094 C 235.375 279.722656 242.101562 275.644531 248.160156 270.902344 C 245.027344 269.730469 241.847656 268.660156 238.632812 267.703125 C 234.179688 273.1875 229.164062 277.980469 223.628906 281.894531 C 225.109375 282.238281 226.582031 282.601562 228.046875 282.996094 Z M 160.128906 282.792969 C 160.132812 282.796875 160.136719 282.792969 160.140625 282.792969 C 163.941406 281.796875 167.808594 280.96875 171.734375 280.308594 C 168.851562 276.285156 166.164062 271.363281 163.753906 265.632812 C 157.5625 267.089844 151.539062 268.925781 145.703125 271.125 C 150.164062 275.765625 155.007812 279.675781 160.128906 282.792969 Z M 222.023438 281.53125 C 227.832031 277.707031 233.101562 272.953125 237.761719 267.445312 C 231.855469 265.734375 225.816406 264.398438 219.667969 263.441406 C 217.238281 269.660156 214.449219 275.136719 211.324219 279.652344 C 214.9375 280.132812 218.507812 280.761719 222.023438 281.53125 Z M 172.679688 280.15625 C 178.777344 279.179688 185.015625 278.617188 191.363281 278.507812 L 191.519531 261.835938 C 186.855469 262.027344 182.160156 262.433594 177.441406 263.082031 C 172.964844 263.699219 168.5625 264.519531 164.242188 265.519531 C 166.785156 271.304688 169.632812 276.210938 172.679688 280.15625 Z M 210.371094 279.539062 C 213.675781 275.109375 216.625 269.636719 219.183594 263.363281 C 210.515625 262.042969 201.640625 261.503906 192.628906 261.800781 L 192.75 278.496094 C 192.988281 278.496094 193.222656 278.488281 193.457031 278.484375 C 199.1875 278.476562 204.832031 278.839844 210.371094 279.539062 Z M 134.378906 275.203125 C 137.632812 273.691406 140.960938 272.300781 144.351562 271.019531 C 139.375 265.527344 134.917969 259.09375 131.136719 251.820312 C 125.859375 253.949219 120.71875 256.339844 115.726562 258.964844 C 121.246094 265.210938 127.53125 270.644531 134.378906 275.203125 Z M 248.640625 270.523438 C 254.445312 265.917969 259.621094 260.699219 264.117188 255.007812 C 259.582031 252.914062 254.941406 251.019531 250.210938 249.328125 C 247.035156 255.878906 243.257812 261.933594 238.933594 267.328125 C 242.210938 268.285156 245.453125 269.347656 248.640625 270.523438 Z M 145.273438 270.675781 C 151.1875 268.488281 157.292969 266.648438 163.570312 265.203125 C 160.980469 258.972656 158.71875 251.796875 156.875 243.78125 C 148.179688 245.746094 139.753906 248.375 131.648438 251.613281 C 135.542969 258.871094 140.144531 265.257812 145.273438 270.675781 Z M 238.074219 267.078125 C 242.542969 261.730469 246.4375 255.695312 249.710938 249.148438 C 241.976562 246.414062 234.003906 244.226562 225.835938 242.648438 C 224.210938 250.03125 222.191406 256.914062 219.8125 263.074219 C 226.015625 264.023438 232.113281 265.371094 238.074219 267.078125 Z M 164.0625 265.097656 C 168.261719 264.144531 172.535156 263.355469 176.878906 262.761719 C 181.789062 262.085938 186.675781 261.667969 191.527344 261.480469 L 191.730469 239.640625 C 187.734375 239.699219 183.714844 239.898438 179.671875 240.246094 C 171.992188 240.90625 164.464844 242.082031 157.132812 243.726562 C 159.042969 251.753906 161.382812 258.917969 164.0625 265.097656 Z M 219.335938 263.003906 C 221.804688 256.882812 223.902344 250.003906 225.582031 242.601562 C 214.839844 240.542969 203.765625 239.515625 192.472656 239.628906 L 192.628906 261.441406 C 201.6875 261.15625 210.617188 261.695312 219.335938 263.003906 Z M 115.136719 258.273438 C 120.203125 255.652344 125.425781 253.265625 130.789062 251.148438 C 127.691406 245.089844 125.0625 238.460938 123 231.316406 C 122.6875 230.222656 122.390625 229.128906 122.109375 228.027344 C 115.007812 230.851562 108.144531 234.070312 101.542969 237.644531 C 105.214844 245.222656 109.8125 252.128906 115.136719 258.273438 Z M 264.511719 254.515625 C 269.558594 248.039062 273.714844 240.953125 276.910156 233.46875 C 270.925781 230.589844 264.785156 228.019531 258.527344 225.765625 C 256.605469 233.894531 253.890625 241.667969 250.453125 248.851562 C 255.234375 250.535156 259.925781 252.425781 264.511719 254.515625 Z M 131.296875 250.953125 C 139.476562 247.757812 147.976562 245.167969 156.75 243.238281 C 155.886719 239.425781 155.113281 235.429688 154.453125 231.257812 C 153.789062 227.097656 153.257812 222.886719 152.84375 218.667969 C 148.945312 219.511719 145.050781 220.484375 141.160156 221.582031 C 134.738281 223.390625 128.488281 225.511719 122.414062 227.914062 C 122.675781 228.910156 122.945312 229.90625 123.234375 230.894531 C 125.355469 238.144531 128.082031 244.847656 131.296875 250.953125 Z M 249.953125 248.667969 C 253.480469 241.523438 256.265625 233.777344 258.230469 225.660156 C 248.933594 222.324219 239.375 219.691406 229.613281 217.804688 C 228.835938 226.335938 227.597656 234.554688 225.925781 242.238281 C 234.140625 243.808594 242.167969 245.957031 249.953125 248.667969 Z M 157 243.183594 C 164.171875 241.617188 171.523438 240.492188 179.035156 239.847656 C 183.292969 239.480469 187.523438 239.285156 191.726562 239.230469 L 191.957031 214.328125 C 179.066406 214.421875 166.019531 215.828125 152.984375 218.640625 C 153.394531 222.730469 153.925781 226.804688 154.578125 230.835938 C 155.273438 235.148438 156.082031 239.265625 157 243.183594 Z M 225.671875 242.195312 C 227.394531 234.53125 228.675781 226.3125 229.46875 217.777344 C 217.324219 215.441406 204.882812 214.257812 192.289062 214.328125 L 192.472656 239.21875 C 203.789062 239.125 214.894531 240.152344 225.675781 242.191406 Z M 225.671875 242.195312 " fill-opacity="1" fill-rule="nonzero"/></g></g></g><g clip-path="url(#d8269ab53d)"><path fill="#000000" d="M 2.359375 162.519531 L 372.652344 162.519531 L 372.652344 226.097656 L 2.359375 226.097656 Z M 2.359375 162.519531 " fill-opacity="1" fill-rule="nonzero"/></g><g fill="#ffffff" fill-opacity="1"><g transform="translate(47.060821, 223.675027)"><g><path d="M 2.9375 0 L 2.9375 -44.671875 L 34.90625 -44.671875 L 34.90625 -35.375 L 13.515625 -35.375 L 13.515625 -27.625 L 34.90625 -27.625 L 34.90625 -18.328125 L 13.515625 -18.328125 L 13.515625 0 Z M 2.9375 0 "/></g></g></g><g fill="#ffffff" fill-opacity="1"><g transform="translate(83.44137, 223.675027)"><g><path d="M 3.8125 0 L 3.8125 -8.296875 L 10.09375 -8.296875 L 10.09375 -36.375 L 3.8125 -36.375 L 3.8125 -44.671875 L 26.8125 -44.671875 L 26.8125 -36.375 L 20.671875 -36.375 L 20.671875 -8.296875 L 26.8125 -8.296875 L 26.8125 0 Z M 3.8125 0 "/></g></g></g><g fill="#ffffff" fill-opacity="1"><g transform="translate(114.070593, 223.675027)"><g><path d="M 2.9375 0 L 2.9375 -44.671875 L 16.390625 -44.671875 L 33.640625 -12.84375 L 33.640625 -44.671875 L 43.875 -44.671875 L 43.875 0 L 30.359375 0 L 13.109375 -31.828125 L 13.109375 0 Z M 2.9375 0 "/></g></g></g><g fill="#ffffff" fill-opacity="1"><g transform="translate(160.883807, 223.675027)"><g><path d="M 0.328125 0 L 17.25 -44.671875 L 28.890625 -44.671875 L 45.8125 0 L 34.3125 0 L 31.625 -7.953125 L 14.515625 -7.953125 L 11.84375 0 Z M 17.390625 -16.515625 L 28.75 -16.515625 L 23 -33.5 Z M 17.390625 -16.515625 "/></g></g></g><g fill="#ffffff" fill-opacity="1"><g transform="translate(207.028249, 223.675027)"><g><path d="M 2.9375 0 L 2.9375 -44.671875 L 16.390625 -44.671875 L 33.640625 -12.84375 L 33.640625 -44.671875 L 43.875 -44.671875 L 43.875 0 L 30.359375 0 L 13.109375 -31.828125 L 13.109375 0 Z M 2.9375 0 "/></g></g></g><g fill="#ffffff" fill-opacity="1"><g transform="translate(253.841463, 223.675027)"><g><path d="M 24.671875 0.796875 C 20.035156 0.796875 16.046875 -0.132812 12.703125 -2 C 9.359375 -3.875 6.796875 -6.550781 5.015625 -10.03125 C 3.234375 -13.507812 2.34375 -17.613281 2.34375 -22.34375 C 2.34375 -27.0625 3.265625 -31.148438 5.109375 -34.609375 C 6.960938 -38.066406 9.582031 -40.738281 12.96875 -42.625 C 16.363281 -44.519531 20.351562 -45.46875 24.9375 -45.46875 C 29.175781 -45.46875 32.867188 -44.53125 36.015625 -42.65625 C 39.160156 -40.789062 41.578125 -38.273438 43.265625 -35.109375 L 33.90625 -31.703125 C 32.925781 -33.523438 31.585938 -34.828125 29.890625 -35.609375 C 28.203125 -36.390625 26.441406 -36.78125 24.609375 -36.78125 C 22.554688 -36.78125 20.679688 -36.210938 18.984375 -35.078125 C 17.296875 -33.941406 15.960938 -32.289062 14.984375 -30.125 C 14.003906 -27.96875 13.515625 -25.375 13.515625 -22.34375 C 13.515625 -17.65625 14.59375 -14.070312 16.75 -11.59375 C 18.914062 -9.125 21.582031 -7.890625 24.75 -7.890625 C 26.4375 -7.890625 28.179688 -8.242188 29.984375 -8.953125 C 31.796875 -9.671875 33.210938 -10.988281 34.234375 -12.90625 L 43.53125 -9.5 C 41.75 -6.332031 39.21875 -3.820312 35.9375 -1.96875 C 32.664062 -0.125 28.910156 0.796875 24.671875 0.796875 Z M 24.671875 0.796875 "/></g></g></g><g fill="#ffffff" fill-opacity="1"><g transform="translate(298.849028, 223.675027)"><g><path d="M 2.9375 0 L 2.9375 -44.671875 L 37.3125 -44.671875 L 37.3125 -35.375 L 13.515625 -35.375 L 13.515625 -27.625 L 28.015625 -27.625 L 28.015625 -18.328125 L 13.515625 -18.328125 L 13.515625 -9.296875 L 37.3125 -9.296875 L 37.3125 0 Z M 2.9375 0 "/></g></g></g><path stroke-linecap="butt" transform="matrix(0.75, 0, 0, 0.75, 0.0000045, 202.417194)" fill="none" stroke-linejoin="miter" d="M -0.000006 0.501033 L 500.000027 0.501033 " stroke="#ffffff" stroke-width="1" stroke-opacity="1" stroke-miterlimit="4"/></svg>